<svg width="51" height="50" viewBox="0 0 51 50" fill="none" xmlns="http://www.w3.org/2000/svg">
    <g opacity="0.5">
        <path d="M17.5312 17.1875C16.651 17.1875 15.9375 17.8871 15.9375 18.75C15.9375 19.6129 16.651 20.3125 17.5312 20.3125H23.9062C24.7865 20.3125 25.5 19.6129 25.5 18.75C25.5 17.8871 24.7865 17.1875 23.9062 17.1875H17.5312Z" fill="#5F5F5F"/>
        <path d="M15.9375 31.25C15.9375 30.3871 16.651 29.6875 17.5312 29.6875H30.2812C31.1615 29.6875 31.875 30.3871 31.875 31.25C31.875 32.1129 31.1615 32.8125 30.2812 32.8125H17.5312C16.651 32.8125 15.9375 32.1129 15.9375 31.25Z" fill="#5F5F5F"/>
        <path d="M17.5312 23.4375C16.651 23.4375 15.9375 24.1371 15.9375 25C15.9375 25.8629 16.651 26.5625 17.5312 26.5625H33.4688C34.349 26.5625 35.0625 25.8629 35.0625 25C35.0625 24.1371 34.349 23.4375 33.4688 23.4375H17.5312Z" fill="#5F5F5F"/>
        <path fill-rule="evenodd" clip-rule="evenodd" d="M25.5 6.25C14.9376 6.25 6.375 14.6447 6.375 25C6.375 35.3553 14.9376 43.75 25.5 43.75C28.5744 43.75 31.4836 43.0376 34.061 41.7708C34.0768 41.7717 34.0956 41.7733 34.1175 41.7755C34.301 41.7946 34.5758 41.8541 34.9575 41.9706C35.5724 42.1584 36.2695 42.4305 37.0528 42.7362C37.2573 42.816 37.4677 42.8982 37.684 42.9817C38.6666 43.361 39.7808 43.7721 40.7802 43.9698C41.283 44.0692 41.8456 44.1339 42.4004 44.0754C42.9668 44.0156 43.6253 43.8146 44.158 43.2925C44.6908 42.7704 44.896 42.1247 44.957 41.5694C45.0167 41.0254 44.9507 40.4738 44.8492 39.9809C44.6475 39.0013 44.2281 37.909 43.8411 36.9457C43.7561 36.7342 43.6726 36.5285 43.5913 36.3285C43.2792 35.5601 43.0013 34.876 42.8098 34.2729C42.6909 33.8987 42.6303 33.6293 42.6109 33.4493L42.608 33.4199L42.606 33.3935C43.8983 30.8665 44.625 28.0143 44.625 25C44.625 14.6447 36.0624 6.25 25.5 6.25ZM9.5625 25C9.5625 16.3706 16.698 9.375 25.5 9.375C34.302 9.375 41.4375 16.3706 41.4375 25C41.4375 27.5602 40.8106 29.9724 39.7006 32.1013C39.3876 32.7016 39.3934 33.3367 39.4411 33.7785C39.4923 34.2522 39.6209 34.7438 39.7664 35.202C39.9985 35.9327 40.3373 36.7659 40.6544 37.5456C40.7299 37.7311 40.8041 37.9136 40.8754 38.0909C41.2706 39.0747 41.5862 39.9264 41.7248 40.5992C41.7547 40.7447 41.7726 40.8652 41.7824 40.963C41.6824 40.9535 41.5593 40.9359 41.4106 40.9065C40.7241 40.7707 39.8553 40.4613 38.8518 40.0739C38.6705 40.004 38.4839 39.9311 38.2943 39.8569C37.4993 39.5463 36.65 39.2144 35.9053 38.987C35.4381 38.8443 34.9368 38.7182 34.4538 38.668C34.0035 38.6211 33.3557 38.6152 32.7433 38.9222C30.5718 40.0104 28.1114 40.625 25.5 40.625C16.698 40.625 9.5625 33.6294 9.5625 25ZM42.6046 33.3346C42.6052 33.3297 42.6054 33.3272 42.6053 33.3271C42.6052 33.3271 42.6053 33.3267 42.6053 33.3271C42.6052 33.3274 42.6051 33.3283 42.605 33.3288L42.6046 33.3346Z" fill="#5F5F5F"/>
    </g>
</svg>
