<svg width="42" height="45" viewBox="0 0 42 45" fill="none" xmlns="http://www.w3.org/2000/svg">
    <g filter="url(#filter0_d_32_2423)">
        <path fill-rule="evenodd" clip-rule="evenodd" d="M21.8839 6.40164C21.3957 5.91348 20.6043 5.91348 20.1161 6.40164L8.50999 18.0078C7.73591 18.7818 7.33873 19.8555 7.42269 20.947L8.31875 32.5959C8.36885 33.2471 8.9119 33.75 9.56507 33.75H17.25V27.5C17.25 25.4289 18.9289 23.75 21 23.75C23.0711 23.75 24.75 25.4289 24.75 27.5V33.75H32.4349C33.0881 33.75 33.6311 33.2471 33.6812 32.5959L34.5773 20.947C34.6613 19.8555 34.2641 18.7818 33.49 18.0078L21.8839 6.40164ZM18.3483 4.63387C19.8128 3.16941 22.1872 3.16941 23.6516 4.63387L35.2578 16.24C36.5479 17.5301 37.2099 19.3196 37.0699 21.1388L36.1739 32.7876C36.0236 34.7413 34.3944 36.25 32.4349 36.25H24.75C23.3693 36.25 22.25 35.1307 22.25 33.75V27.5C22.25 26.8096 21.6904 26.25 21 26.25C20.3096 26.25 19.75 26.8096 19.75 27.5V33.75C19.75 35.1307 18.6307 36.25 17.25 36.25H9.56507C7.60556 36.25 5.9764 34.7413 5.82612 32.7876L4.93005 21.1388C4.79012 19.3196 5.45209 17.5301 6.74223 16.24L18.3483 4.63387Z" fill="#5F5F5F"/>
    </g>
    <defs>
        <filter id="filter0_d_32_2423" x="-3" y="0" width="48" height="48" filterUnits="userSpaceOnUse" color-interpolation-filters="sRGB">
            <feFlood flood-opacity="0" result="BackgroundImageFix"/>
            <feColorMatrix in="SourceAlpha" type="matrix" values="0 0 0 0 0 0 0 0 0 0 0 0 0 0 0 0 0 0 127 0" result="hardAlpha"/>
            <feOffset dy="4"/>
            <feGaussianBlur stdDeviation="2"/>
            <feComposite in2="hardAlpha" operator="out"/>
            <feColorMatrix type="matrix" values="0 0 0 0 0 0 0 0 0 0 0 0 0 0 0 0 0 0 0.25 0"/>
            <feBlend mode="normal" in2="BackgroundImageFix" result="effect1_dropShadow_32_2423"/>
            <feBlend mode="normal" in="SourceGraphic" in2="effect1_dropShadow_32_2423" result="shape"/>
        </filter>
    </defs>
</svg>
