<?xml version="1.0" standalone="no"?>
<!DOCTYPE svg PUBLIC "-//W3C//DTD SVG 20010904//EN"
 "http://www.w3.org/TR/2001/REC-SVG-20010904/DTD/svg10.dtd">
<svg version="1.0" xmlns="http://www.w3.org/2000/svg"
 width="114.000000pt" height="88.000000pt" viewBox="0 0 114.000000 88.000000"
 preserveAspectRatio="xMidYMid meet">

<g transform="translate(0.000000,88.000000) scale(0.100000,-0.100000)"
fill="#000000" stroke="none">
<path d="M927 801 c-17 -6 -18 -8 -3 -20 18 -15 29 -10 24 12 -2 9 -9 12 -21
8z"/>
<path d="M407 722 c-18 -20 -22 -42 -9 -42 12 0 42 34 42 48 0 17 -15 15 -33
-6z"/>
<path d="M527 602 c-18 -20 -22 -42 -9 -42 14 0 53 46 45 53 -10 11 -19 8 -36
-11z"/>
<path d="M737 392 c-18 -20 -22 -42 -9 -42 14 0 53 46 45 53 -10 11 -19 8 -36
-11z"/>
<path d="M857 272 c-18 -20 -22 -42 -9 -42 14 0 53 46 45 53 -10 11 -19 8 -36
-11z"/>
</g>
</svg>
