<svg width="36" height="40" viewBox="0 0 36 40" fill="none" xmlns="http://www.w3.org/2000/svg">
    <path fill-rule="evenodd" clip-rule="evenodd" d="M18 0C12.6292 0 8.27539 4.13276 8.27539 9.23077C8.27539 14.3288 12.6292 18.4615 18 18.4615C23.3708 18.4615 27.7246 14.3288 27.7246 9.23077C27.7246 4.13276 23.3708 0 18 0ZM11.5169 9.23077C11.5169 5.83209 14.4195 3.07692 18 3.07692C21.5805 3.07692 24.4831 5.83209 24.4831 9.23077C24.4831 12.6294 21.5805 15.3846 18 15.3846C14.4195 15.3846 11.5169 12.6294 11.5169 9.23077Z" fill="#5F5F5F"/>
    <path fill-rule="evenodd" clip-rule="evenodd" d="M18 20C10.5387 20 5.92565 22.2031 3.22548 25.3582C0.578041 28.4517 0.00793095 32.1885 2.31271e-05 34.8418C-0.00947792 38.0298 2.91001 40 5.83141 40H30.1686C33.09 40 36.0095 38.0298 36 34.8418C35.9921 32.1885 35.422 28.4517 32.7745 25.3582C30.0744 22.2031 25.4614 20 18 20ZM3.24155 34.8505C3.24846 32.5331 3.75799 29.616 5.74147 27.2983C7.67222 25.0423 11.2414 23.0769 18 23.0769C24.7586 23.0769 28.3278 25.0423 30.2585 27.2983C32.242 29.616 32.7516 32.5331 32.7585 34.8505C32.7617 35.9356 31.7489 36.9231 30.1686 36.9231H5.83141C4.25114 36.9231 3.23831 35.9356 3.24155 34.8505Z" fill="#5F5F5F"/>
</svg>
